# xmcd
#
# Track frame offsets:
#	150
#	19942
#	42830
#	70052
#	97947
#	122300
#	145667
#	173412
#	193727
#	217120
#
# Disc length: 3164 seconds
#
# Revision: 3003385686
# Processed by: cddbd v1.5.2PL0 Copyright (c) Steve Scherf et al.
# Submitted via: EZCDAudioConverter 8.0.2.1
#
DISCID=800c5a0a
DTITLE=Duy Khánh - Hat Cho Mai Sau
DYEAR=1999
DGENRE=Miscellaneous
TTITLE0=Ly cà phê cuối cùng
TTITLE1=Bài thương ca vô tận
TTITLE2=Ngày trở về
TTITLE3=Đường chiều
TTITLE4=Đêm tiền đồn
TTITLE5=Chiến sĩ vô danh
TTITLE6=Hát cho mai sau
TTITLE7=Bao giờ em quên
TTITLE8=Người tình và quê hương
TTITLE9=Một đời tan vỡ
EXTD=
EXTT0=
EXTT1=
EXTT2=
EXTT3=
EXTT4=
EXTT5=
EXTT6=
EXTT7=
EXTT8=
EXTT9=
PLAYORDER=
